<mxfile host="Electron" modified="2023-05-24T09:58:54.157Z" agent="Mozilla/5.0 (Windows NT 10.0; Win64; x64) AppleWebKit/537.36 (KHTML, like Gecko) draw.io/21.2.8 Chrome/112.0.5615.165 Electron/24.2.0 Safari/537.36" etag="1_JLXNzpj49D6D23I6yz" version="21.2.8" type="device">
  <diagram name="Page-1" id="ymSuN-ZyJhWG2fc5j15q">
    <mxGraphModel dx="1175" dy="1953" grid="1" gridSize="10" guides="1" tooltips="1" connect="1" arrows="1" fold="1" page="1" pageScale="1" pageWidth="827" pageHeight="1169" math="0" shadow="0">
      <root>
        <mxCell id="0" />
        <mxCell id="1" parent="0" />
        <mxCell id="BRfnsDcs4DEsO94Z_U3y-1" value="" style="endArrow=classic;html=1;rounded=0;strokeWidth=8;exitX=0.5;exitY=1;exitDx=0;exitDy=0;" edge="1" parent="1" source="BRfnsDcs4DEsO94Z_U3y-26">
          <mxGeometry width="50" height="50" relative="1" as="geometry">
            <mxPoint x="40" y="80" as="sourcePoint" />
            <mxPoint x="40" y="1591.3333333333333" as="targetPoint" />
          </mxGeometry>
        </mxCell>
        <mxCell id="BRfnsDcs4DEsO94Z_U3y-4" style="edgeStyle=orthogonalEdgeStyle;rounded=0;orthogonalLoop=1;jettySize=auto;html=1;entryX=0.5;entryY=0;entryDx=0;entryDy=0;" edge="1" parent="1" source="BRfnsDcs4DEsO94Z_U3y-2" target="BRfnsDcs4DEsO94Z_U3y-3">
          <mxGeometry relative="1" as="geometry">
            <Array as="points">
              <mxPoint x="300" y="120" />
            </Array>
          </mxGeometry>
        </mxCell>
        <mxCell id="BRfnsDcs4DEsO94Z_U3y-28" value="On App Start Run Main Program Thread" style="edgeLabel;html=1;align=center;verticalAlign=middle;resizable=0;points=[];fontSize=12;" vertex="1" connectable="0" parent="BRfnsDcs4DEsO94Z_U3y-4">
          <mxGeometry x="-0.0896" y="2" relative="1" as="geometry">
            <mxPoint x="56" y="-18" as="offset" />
          </mxGeometry>
        </mxCell>
        <mxCell id="BRfnsDcs4DEsO94Z_U3y-11" style="edgeStyle=orthogonalEdgeStyle;rounded=0;orthogonalLoop=1;jettySize=auto;html=1;dashed=1;strokeWidth=2;fillColor=#f5f5f5;strokeColor=#666666;fontStyle=1" edge="1" parent="1" source="BRfnsDcs4DEsO94Z_U3y-2">
          <mxGeometry relative="1" as="geometry">
            <mxPoint x="140" y="1160" as="targetPoint" />
            <Array as="points">
              <mxPoint x="140" y="420" />
              <mxPoint x="140" y="420" />
            </Array>
          </mxGeometry>
        </mxCell>
        <mxCell id="BRfnsDcs4DEsO94Z_U3y-27" value="Main Windows Closed" style="edgeLabel;html=1;align=center;verticalAlign=middle;resizable=0;points=[];fontSize=12;" vertex="1" connectable="0" parent="BRfnsDcs4DEsO94Z_U3y-11">
          <mxGeometry x="0.9111" relative="1" as="geometry">
            <mxPoint as="offset" />
          </mxGeometry>
        </mxCell>
        <mxCell id="BRfnsDcs4DEsO94Z_U3y-2" value="TKinter GUI Thread" style="rounded=1;whiteSpace=wrap;html=1;fillColor=#dae8fc;strokeColor=#6c8ebf;" vertex="1" parent="1">
          <mxGeometry x="80" y="80" width="120" height="80" as="geometry" />
        </mxCell>
        <mxCell id="BRfnsDcs4DEsO94Z_U3y-7" value="" style="edgeStyle=orthogonalEdgeStyle;rounded=0;orthogonalLoop=1;jettySize=auto;html=1;" edge="1" parent="1" source="BRfnsDcs4DEsO94Z_U3y-3" target="BRfnsDcs4DEsO94Z_U3y-6">
          <mxGeometry relative="1" as="geometry">
            <Array as="points">
              <mxPoint x="460" y="200" />
            </Array>
          </mxGeometry>
        </mxCell>
        <mxCell id="BRfnsDcs4DEsO94Z_U3y-10" style="edgeStyle=orthogonalEdgeStyle;rounded=0;orthogonalLoop=1;jettySize=auto;html=1;entryX=0.5;entryY=0;entryDx=0;entryDy=0;" edge="1" parent="1" source="BRfnsDcs4DEsO94Z_U3y-3" target="BRfnsDcs4DEsO94Z_U3y-9">
          <mxGeometry relative="1" as="geometry" />
        </mxCell>
        <mxCell id="BRfnsDcs4DEsO94Z_U3y-3" value="Main Program Thread" style="rounded=1;whiteSpace=wrap;html=1;fillColor=#f8cecc;strokeColor=#b85450;" vertex="1" parent="1">
          <mxGeometry x="240" y="160" width="120" height="80" as="geometry" />
        </mxCell>
        <mxCell id="BRfnsDcs4DEsO94Z_U3y-6" value="Main Watcher Thread" style="whiteSpace=wrap;html=1;fillColor=#ffe6cc;strokeColor=#d79b00;rounded=1;" vertex="1" parent="1">
          <mxGeometry x="400" y="240" width="120" height="80" as="geometry" />
        </mxCell>
        <mxCell id="BRfnsDcs4DEsO94Z_U3y-17" value="" style="edgeStyle=orthogonalEdgeStyle;rounded=0;orthogonalLoop=1;jettySize=auto;html=1;entryX=0.5;entryY=0;entryDx=0;entryDy=0;" edge="1" parent="1" source="BRfnsDcs4DEsO94Z_U3y-9" target="BRfnsDcs4DEsO94Z_U3y-16">
          <mxGeometry relative="1" as="geometry" />
        </mxCell>
        <mxCell id="BRfnsDcs4DEsO94Z_U3y-20" style="edgeStyle=orthogonalEdgeStyle;rounded=0;orthogonalLoop=1;jettySize=auto;html=1;entryX=0.5;entryY=0;entryDx=0;entryDy=0;" edge="1" parent="1" source="BRfnsDcs4DEsO94Z_U3y-9" target="BRfnsDcs4DEsO94Z_U3y-18">
          <mxGeometry relative="1" as="geometry" />
        </mxCell>
        <mxCell id="BRfnsDcs4DEsO94Z_U3y-21" style="edgeStyle=orthogonalEdgeStyle;rounded=0;orthogonalLoop=1;jettySize=auto;html=1;entryX=0.5;entryY=0;entryDx=0;entryDy=0;" edge="1" parent="1" source="BRfnsDcs4DEsO94Z_U3y-9" target="BRfnsDcs4DEsO94Z_U3y-19">
          <mxGeometry relative="1" as="geometry" />
        </mxCell>
        <mxCell id="BRfnsDcs4DEsO94Z_U3y-9" value="Main Thread Pool Thread" style="whiteSpace=wrap;html=1;fillColor=#ffe6cc;strokeColor=#d79b00;rounded=1;" vertex="1" parent="1">
          <mxGeometry x="560" y="240" width="120" height="80" as="geometry" />
        </mxCell>
        <mxCell id="BRfnsDcs4DEsO94Z_U3y-12" style="edgeStyle=orthogonalEdgeStyle;rounded=0;orthogonalLoop=1;jettySize=auto;html=1;dashed=1;strokeWidth=2;fillColor=#f5f5f5;strokeColor=#666666;fontStyle=1;exitX=0.5;exitY=1;exitDx=0;exitDy=0;" edge="1" parent="1" source="BRfnsDcs4DEsO94Z_U3y-3">
          <mxGeometry relative="1" as="geometry">
            <mxPoint x="140" y="1080" as="targetPoint" />
            <mxPoint x="299.5" y="260" as="sourcePoint" />
            <Array as="points">
              <mxPoint x="300" y="1080" />
            </Array>
          </mxGeometry>
        </mxCell>
        <mxCell id="BRfnsDcs4DEsO94Z_U3y-13" style="edgeStyle=orthogonalEdgeStyle;rounded=0;orthogonalLoop=1;jettySize=auto;html=1;dashed=1;strokeWidth=2;fillColor=#f5f5f5;strokeColor=#666666;fontStyle=1;exitX=0.5;exitY=1;exitDx=0;exitDy=0;" edge="1" parent="1" source="BRfnsDcs4DEsO94Z_U3y-6">
          <mxGeometry relative="1" as="geometry">
            <mxPoint x="300" y="1000" as="targetPoint" />
            <mxPoint x="459.5" y="330" as="sourcePoint" />
            <Array as="points">
              <mxPoint x="460" y="1000" />
            </Array>
          </mxGeometry>
        </mxCell>
        <mxCell id="BRfnsDcs4DEsO94Z_U3y-14" style="edgeStyle=orthogonalEdgeStyle;rounded=0;orthogonalLoop=1;jettySize=auto;html=1;dashed=1;strokeWidth=2;fillColor=#f5f5f5;strokeColor=#666666;fontStyle=1;exitX=0.5;exitY=1;exitDx=0;exitDy=0;" edge="1" parent="1" source="BRfnsDcs4DEsO94Z_U3y-9">
          <mxGeometry relative="1" as="geometry">
            <mxPoint x="300" y="1040" as="targetPoint" />
            <mxPoint x="620" y="330" as="sourcePoint" />
            <Array as="points">
              <mxPoint x="620" y="1040" />
            </Array>
          </mxGeometry>
        </mxCell>
        <mxCell id="BRfnsDcs4DEsO94Z_U3y-16" value="Pool Thread 1" style="whiteSpace=wrap;html=1;fillColor=#fff2cc;strokeColor=#d6b656;rounded=1;" vertex="1" parent="1">
          <mxGeometry x="720" y="320" width="120" height="40" as="geometry" />
        </mxCell>
        <mxCell id="BRfnsDcs4DEsO94Z_U3y-18" value="Pool Thread 2" style="whiteSpace=wrap;html=1;fillColor=#fff2cc;strokeColor=#d6b656;rounded=1;" vertex="1" parent="1">
          <mxGeometry x="880" y="320" width="120" height="40" as="geometry" />
        </mxCell>
        <mxCell id="BRfnsDcs4DEsO94Z_U3y-19" value="Pool Thread 3" style="whiteSpace=wrap;html=1;fillColor=#fff2cc;strokeColor=#d6b656;rounded=1;" vertex="1" parent="1">
          <mxGeometry x="1040" y="320" width="120" height="40" as="geometry" />
        </mxCell>
        <mxCell id="BRfnsDcs4DEsO94Z_U3y-22" style="edgeStyle=orthogonalEdgeStyle;rounded=0;orthogonalLoop=1;jettySize=auto;html=1;dashed=1;strokeWidth=2;fillColor=#f5f5f5;strokeColor=#666666;fontStyle=1;exitX=0.5;exitY=1;exitDx=0;exitDy=0;" edge="1" parent="1" source="BRfnsDcs4DEsO94Z_U3y-16">
          <mxGeometry relative="1" as="geometry">
            <mxPoint x="620" y="840" as="targetPoint" />
            <mxPoint x="790" y="380" as="sourcePoint" />
            <Array as="points">
              <mxPoint x="780" y="840" />
            </Array>
          </mxGeometry>
        </mxCell>
        <mxCell id="BRfnsDcs4DEsO94Z_U3y-23" style="edgeStyle=orthogonalEdgeStyle;rounded=0;orthogonalLoop=1;jettySize=auto;html=1;dashed=1;strokeWidth=2;fillColor=#f5f5f5;strokeColor=#666666;fontStyle=1;exitX=0.5;exitY=1;exitDx=0;exitDy=0;" edge="1" parent="1" source="BRfnsDcs4DEsO94Z_U3y-18">
          <mxGeometry relative="1" as="geometry">
            <mxPoint x="620" y="880" as="targetPoint" />
            <mxPoint x="780" y="400" as="sourcePoint" />
            <Array as="points">
              <mxPoint x="940" y="880" />
            </Array>
          </mxGeometry>
        </mxCell>
        <mxCell id="BRfnsDcs4DEsO94Z_U3y-24" style="edgeStyle=orthogonalEdgeStyle;rounded=0;orthogonalLoop=1;jettySize=auto;html=1;dashed=1;strokeWidth=2;fillColor=#f5f5f5;strokeColor=#666666;fontStyle=1;exitX=0.5;exitY=1;exitDx=0;exitDy=0;" edge="1" parent="1" source="BRfnsDcs4DEsO94Z_U3y-19">
          <mxGeometry relative="1" as="geometry">
            <mxPoint x="619.97" y="920" as="targetPoint" />
            <mxPoint x="939.97" y="400" as="sourcePoint" />
            <Array as="points">
              <mxPoint x="1100" y="920" />
            </Array>
          </mxGeometry>
        </mxCell>
        <mxCell id="BRfnsDcs4DEsO94Z_U3y-25" value="Thread Execution ideal case" style="rounded=1;whiteSpace=wrap;html=1;fontSize=26;" vertex="1" parent="1">
          <mxGeometry x="121" y="-20" width="1120" height="60" as="geometry" />
        </mxCell>
        <mxCell id="BRfnsDcs4DEsO94Z_U3y-26" value="Execution Time" style="rounded=1;whiteSpace=wrap;html=1;fontSize=15;" vertex="1" parent="1">
          <mxGeometry y="-20" width="80" height="60" as="geometry" />
        </mxCell>
        <mxCell id="BRfnsDcs4DEsO94Z_U3y-29" value="On Click Run This 2 Sub Thread" style="edgeLabel;html=1;align=center;verticalAlign=middle;resizable=0;points=[];fontSize=12;" vertex="1" connectable="0" parent="1">
          <mxGeometry x="489.9963636363635" y="190" as="geometry" />
        </mxCell>
        <mxCell id="BRfnsDcs4DEsO94Z_U3y-30" value="On Copy Start Run Threads" style="edgeLabel;html=1;align=center;verticalAlign=middle;resizable=0;points=[];fontSize=12;" vertex="1" connectable="0" parent="1">
          <mxGeometry x="809.9963636363635" y="270" as="geometry" />
        </mxCell>
      </root>
    </mxGraphModel>
  </diagram>
</mxfile>
